<svg width="25" height="25" viewBox="0 0 25 25" fill="none" xmlns="http://www.w3.org/2000/svg">
<path fill-rule="evenodd" clip-rule="evenodd" d="M0 0H1.5625V23.4375H25V25H0V0ZM15.625 5.46875C15.625 5.03728 15.9748 4.6875 16.4062 4.6875H22.6562C23.0877 4.6875 23.4375 5.03728 23.4375 5.46875V11.7188C23.4375 12.1502 23.0877 12.5 22.6562 12.5C22.2248 12.5 21.875 12.1502 21.875 11.7188V7.65735L16.2297 14.5572C16.0899 14.7281 15.8844 14.8318 15.6639 14.8428C15.4435 14.8538 15.2287 14.771 15.0726 14.6149L11.0316 10.5739L5.31932 18.4283C5.06555 18.7772 4.57694 18.8544 4.22799 18.6006C3.87904 18.3468 3.8019 17.8582 4.05568 17.5092L10.3057 8.91549C10.4401 8.73071 10.6486 8.61402 10.8764 8.59614C11.1042 8.57827 11.3284 8.66101 11.4899 8.82257L15.567 12.8996L21.0076 6.25H16.4062C15.9748 6.25 15.625 5.90022 15.625 5.46875Z" fill="#1F1D2B"/>
</svg>
