<svg width="25" height="25" viewBox="0 0 25 25" fill="none" xmlns="http://www.w3.org/2000/svg">
<path d="M12.8304 3.19829C12.621 3.10057 12.379 3.10057 12.1696 3.19829L0.450873 8.66704C0.168615 8.79876 -0.00842975 9.08556 0.000309366 9.39692C0.00904843 9.70828 0.201902 9.98469 0.491103 10.1004L12.2099 14.7879C12.3961 14.8624 12.6039 14.8624 12.7902 14.7879L21.875 11.1539V20.3125C21.0121 20.3125 20.3125 21.0121 20.3125 21.875V25H25V21.875C25 21.0121 24.3004 20.3125 23.4375 20.3125V10.5289L24.5089 10.1004C24.7981 9.98469 24.991 9.70828 24.9997 9.39692C25.0084 9.08556 24.8314 8.79876 24.5491 8.66704L12.8304 3.19829Z" fill="#1F1D2B"/>
<path d="M6.52432 14.1122C6.32108 14.036 6.09529 14.0478 5.90108 14.1447C5.70687 14.2417 5.56175 14.4151 5.5005 14.6233L4.71925 17.2796C4.60555 17.6661 4.80449 18.0757 5.1786 18.2254L12.2099 21.0379C12.3961 21.1124 12.6039 21.1124 12.7902 21.0379L19.8214 18.2254C20.1955 18.0757 20.3944 17.6661 20.2808 17.2796L19.4995 14.6233C19.4383 14.4151 19.2931 14.2417 19.0989 14.1447C18.9047 14.0478 18.6789 14.036 18.4757 14.1122L12.5 16.3531L6.52432 14.1122Z" fill="#1F1D2B"/>
</svg>
