<svg width="25" height="23" viewBox="0 0 25 23" fill="none" xmlns="http://www.w3.org/2000/svg">
<path d="M13.6049 1.34382C12.9947 0.733622 12.0053 0.733619 11.3951 1.34382L1.01007 11.7289C0.704976 12.034 0.704976 12.5286 1.01007 12.8337C1.31517 13.1388 1.80983 13.1388 2.11493 12.8337L12.5 2.44867L22.8851 12.8337C23.1902 13.1388 23.6848 13.1388 23.9899 12.8337C24.295 12.5286 24.295 12.034 23.9899 11.7289L20.3125 8.05146V2.90632C20.3125 2.47484 19.9627 2.12507 19.5312 2.12507H17.9688C17.5373 2.12507 17.1875 2.47484 17.1875 2.90632V4.92646L13.6049 1.34382Z" fill="#1F1D2B"/>
<path d="M12.5 4.14521L21.875 13.5202V20.0938C21.875 21.3882 20.8257 22.4376 19.5312 22.4376H5.46875C4.17433 22.4376 3.125 21.3882 3.125 20.0938V13.5202L12.5 4.14521Z" fill="#1F1D2B"/>
</svg>
