<svg width="25" height="25" viewBox="0 0 25 25" fill="none" xmlns="http://www.w3.org/2000/svg">
<path d="M9.375 11.7188C11.9278 11.7188 14 9.64654 14 7.09375C14 4.54096 11.9278 2.46875 9.375 2.46875C6.82221 2.46875 4.75 4.54096 4.75 7.09375C4.75 9.64654 6.82221 11.7188 9.375 11.7188ZM13.125 13.2812H12.4266C11.5781 13.6953 10.6094 13.9062 9.375 13.9062C8.14063 13.9062 7.17188 13.6953 6.32344 13.2812H5.625C2.51953 13.2812 0 15.8008 0 18.9062V20.7812C0 21.8203 0.804688 22.6562 1.84375 22.6562H16.9062C17.9453 22.6562 18.75 21.8203 18.75 20.7812V18.9062C18.75 15.8008 16.2305 13.2812 13.125 13.2812ZM21.875 10.1562H19.5312V7.8125C19.5312 7.29297 19.1094 6.875 18.5938 6.875C18.0742 6.875 17.6562 7.29297 17.6562 7.8125V10.1562H15.3125C14.793 10.1562 14.375 10.5781 14.375 11.0938C14.375 11.6133 14.793 12.0312 15.3125 12.0312H17.6562V14.375C17.6562 14.8945 18.0742 15.3125 18.5938 15.3125C19.1094 15.3125 19.5312 14.8945 19.5312 14.375V12.0312H21.875C22.3906 12.0312 22.8125 11.6133 22.8125 11.0938C22.8125 10.5781 22.3906 10.1562 21.875 10.1562Z" fill="#1F1D2B"/>
</svg>
