<svg width="25" height="25" viewBox="0 0 25 25" fill="none" xmlns="http://www.w3.org/2000/svg">
<path d="M13.2812 4.19798C14.3025 3.12201 16.0656 2.81378 18.1443 3.02344C20.072 3.21789 22.0547 3.84032 23.4375 4.41809V19.9235C22.0036 19.3768 20.1454 18.8424 18.3011 18.6563C16.5927 18.484 14.742 18.5977 13.2812 19.4259V4.19798ZM12.5 2.78604C10.9611 1.46323 8.72942 1.26403 6.69894 1.46883C4.33315 1.70745 1.94467 2.5193 0.457966 3.19507C0.179065 3.32184 0 3.59993 0 3.90629V21.0938C0 21.3594 0.134963 21.6069 0.358292 21.7507C0.581622 21.8945 0.862718 21.9149 1.10453 21.805C2.48242 21.1787 4.70331 20.4281 6.85575 20.2109C9.05571 19.989 10.9023 20.3473 11.8899 21.5818C12.0382 21.7672 12.2627 21.875 12.5 21.875C12.7373 21.875 12.9618 21.7672 13.1101 21.5818C14.0977 20.3473 15.9443 19.989 18.1443 20.2109C20.2967 20.4281 22.5176 21.1787 23.8955 21.805C24.1373 21.9149 24.4184 21.8945 24.6417 21.7507C24.865 21.6069 25 21.3594 25 21.0938V3.90629C25 3.59993 24.8209 3.32184 24.542 3.19507C23.0553 2.5193 20.6668 1.70745 18.3011 1.46883C16.2706 1.26403 14.0389 1.46323 12.5 2.78604Z" fill="#1F1D2B"/>
</svg>
