<svg width="23" height="23" viewBox="0 0 23 23" fill="none" xmlns="http://www.w3.org/2000/svg">
<path d="M18.477 0.210517C18.1963 -0.0701724 17.7412 -0.0701724 17.4605 0.210517L15.0938 2.57729L20.4227 7.90626L22.7895 5.53948C23.0702 5.25879 23.0702 4.80371 22.7895 4.52302L18.477 0.210517Z" fill="black"/>
<path d="M19.4063 8.92273L14.0773 3.59376L4.73355 12.9375H5.03125C5.4282 12.9375 5.75 13.2593 5.75 13.6562V14.375H6.46875C6.8657 14.375 7.1875 14.6968 7.1875 15.0938V15.8125H7.90625C8.3032 15.8125 8.625 16.1343 8.625 16.5312V17.25H9.34375C9.7407 17.25 10.0625 17.5718 10.0625 17.9688V18.2665L19.4063 8.92273Z" fill="black"/>
<path d="M8.6705 19.6585C8.64109 19.58 8.625 19.495 8.625 19.4062V18.6875H7.90625C7.5093 18.6875 7.1875 18.3657 7.1875 17.9688V17.25H6.46875C6.0718 17.25 5.75 16.9282 5.75 16.5312V15.8125H5.03125C4.6343 15.8125 4.3125 15.4907 4.3125 15.0938V14.375H3.59375C3.50501 14.375 3.42002 14.3589 3.34155 14.3295L3.08554 14.5855C3.01671 14.6543 2.96258 14.7364 2.92643 14.8268L0.0514283 22.0143C-0.055354 22.2813 0.00723046 22.5862 0.210538 22.7895C0.413845 22.9928 0.718752 23.0554 0.985708 22.9486L8.17321 20.0736C8.26358 20.0374 8.34568 19.9833 8.4145 19.9145L8.6705 19.6585Z" fill="black"/>
</svg>
