<svg width="40" height="33" viewBox="0 0 40 33" fill="none" xmlns="http://www.w3.org/2000/svg">
<path d="M2.5 4.82909C4.71245 3.90466 7.88475 2.90877 10.9692 2.59766C14.295 2.26221 17.116 2.75538 18.75 4.47693V28.8416C16.4128 27.5165 13.4516 27.3346 10.7183 27.6103C7.76732 27.9079 4.79427 28.763 2.5 29.6378V4.82909ZM21.25 4.47693C22.884 2.75538 25.705 2.26221 29.0308 2.59766C32.1153 2.90877 35.2875 3.90466 37.5 4.82909V29.6378C35.2057 28.763 32.2327 27.9079 29.2817 27.6103C26.5484 27.3346 23.5872 27.5165 21.25 28.8416V4.47693ZM20 2.21782C17.5377 0.101326 13.9671 -0.217402 10.7183 0.110284C6.93304 0.492082 3.11147 1.79103 0.732746 2.87227C0.286503 3.0751 0 3.52004 0 4.01022V31.5102C0 31.9352 0.21594 32.3311 0.573268 32.5612C0.930595 32.7913 1.38035 32.8241 1.76725 32.6482C3.97187 31.6461 7.52529 30.445 10.9692 30.0977C14.4891 29.7426 17.4437 30.3158 19.0239 32.2911C19.2611 32.5876 19.6203 32.7602 20 32.7602C20.3797 32.7602 20.7389 32.5876 20.9761 32.2911C22.5563 30.3158 25.5109 29.7426 29.0308 30.0977C32.4747 30.445 36.0281 31.6461 38.2327 32.6482C38.6197 32.8241 39.0694 32.7913 39.4267 32.5612C39.7841 32.3311 40 31.9352 40 31.5102V4.01022C40 3.52004 39.7135 3.0751 39.2673 2.87227C36.8885 1.79103 33.067 0.492082 29.2817 0.110284C26.0329 -0.217402 22.4623 0.101326 20 2.21782Z" fill="#1F1D2B"/>
<path d="M24.1705 17.6902C26.4768 15.0984 27.4485 13.0063 27.8112 11.4723C28.021 10.5851 28.0251 9.89209 27.9702 9.4075C27.9428 9.16574 27.9009 8.97736 27.8634 8.84404C27.8447 8.77741 27.8271 8.72461 27.813 8.68584C27.8042 8.66167 27.7949 8.63757 27.7846 8.614L27.7841 8.61289C27.7117 8.44912 27.6175 8.37876 27.4328 8.31868C27.3938 8.30597 27.3404 8.29009 27.273 8.27332C27.1382 8.23978 26.9474 8.20276 26.7031 8.18051C26.2136 8.13594 25.5139 8.15115 24.6233 8.36809C23.087 8.74237 21.0047 9.71123 18.4618 11.972L16.0616 12.2101L16.0556 12.2107C15.4793 12.2749 14.9419 12.5335 14.5319 12.9442L12.1496 15.3301C11.9942 15.4858 11.9556 15.7236 12.0539 15.9205C12.1522 16.1175 12.3653 16.2293 12.583 16.1981L14.4791 15.9269C14.759 15.8868 15.0714 15.9406 15.4339 16.059C15.6662 16.1349 15.8713 16.2187 16.0885 16.3074C16.1545 16.3344 16.2222 16.3621 16.2915 16.3899C16.4883 17.2065 16.9528 17.9706 17.5665 18.5852C18.1802 19.1998 18.9428 19.6649 19.7581 19.8621C19.7858 19.9313 19.8132 19.9984 19.8401 20.0643C19.929 20.2824 20.013 20.4882 20.0889 20.7212C20.2071 21.0841 20.2609 21.397 20.2209 21.6773L19.95 23.5764C19.9189 23.7944 20.0306 24.0078 20.2272 24.1062C20.4238 24.2047 20.6613 24.1661 20.8167 24.0104L23.1991 21.6245C23.6091 21.2138 23.8673 20.6757 23.9314 20.0985L24.1705 17.6902ZM24.2803 13.9917C23.4825 14.7907 22.3507 14.9526 21.7523 14.3534C21.154 13.7541 21.3157 12.6206 22.1135 11.8216C22.9113 11.0226 24.0431 10.8607 24.6414 11.46C25.2397 12.0592 25.0781 13.1927 24.2803 13.9917Z" fill="#1F1D2B"/>
<path d="M17.2054 18.9469C17.7468 19.4891 18.3624 19.9569 19.0089 20.299C17.8905 21.3057 14.0804 22.3274 13.9553 22.202C13.8289 22.0755 14.6921 18.0133 15.794 17.0214C16.1401 17.7124 16.6309 18.3715 17.2054 18.9469Z" fill="#1F1D2B"/>
</svg>
