<svg width="40" height="40" viewBox="0 0 40 40" fill="none" xmlns="http://www.w3.org/2000/svg">
<path d="M20 37.5C10.335 37.5 2.5 29.665 2.5 20C2.5 10.335 10.335 2.5 20 2.5C29.665 2.5 37.5 10.335 37.5 20C37.5 29.665 29.665 37.5 20 37.5ZM20 40C31.0457 40 40 31.0457 40 20C40 8.95431 31.0457 0 20 0C8.95431 0 0 8.95431 0 20C0 31.0457 8.95431 40 20 40Z" fill="#1F1D2B"/>
<path d="M13.3333 28C13.3333 28 12 28 12 26.6667C12 25.3333 13.3333 21.3333 20 21.3333C26.6667 21.3333 28 25.3333 28 26.6667C28 28 26.6667 28 26.6667 28H13.3333Z" fill="#1F1D2B"/>
<path d="M20 20C22.2091 20 24 18.2091 24 16C24 13.7909 22.2091 12 20 12C17.7909 12 16 13.7909 16 16C16 18.2091 17.7909 20 20 20Z" fill="#1F1D2B"/>
</svg>
