<svg width="25" height="25" viewBox="0 0 25 25" fill="none" xmlns="http://www.w3.org/2000/svg">
<path d="M18.75 25C22.2018 25 25 22.2018 25 18.75C25 15.2982 22.2018 12.5 18.75 12.5C15.2982 12.5 12.5 15.2982 12.5 18.75C12.5 22.2018 15.2982 25 18.75 25ZM19.6429 16.0714V17.8571H21.4286C21.9217 17.8571 22.3214 18.2569 22.3214 18.75C22.3214 19.2431 21.9217 19.6429 21.4286 19.6429H19.6429V21.4286C19.6429 21.9217 19.2431 22.3214 18.75 22.3214C18.2569 22.3214 17.8571 21.9217 17.8571 21.4286V19.6429H16.0714C15.5783 19.6429 15.1786 19.2431 15.1786 18.75C15.1786 18.2569 15.5783 17.8571 16.0714 17.8571H17.8571V16.0714C17.8571 15.5783 18.2569 15.1786 18.75 15.1786C19.2431 15.1786 19.6429 15.5783 19.6429 16.0714Z" fill="#24B82C"/>
<path d="M16.0714 5.35714C16.0714 8.31581 13.673 10.7143 10.7143 10.7143C7.75562 10.7143 5.35714 8.31581 5.35714 5.35714C5.35714 2.39847 7.75562 0 10.7143 0C13.673 0 16.0714 2.39847 16.0714 5.35714Z" fill="#24B82C"/>
<path d="M0 19.6429C0 21.4286 1.78571 21.4286 1.78571 21.4286H11.1715C10.8754 20.5908 10.7143 19.6892 10.7143 18.75C10.7143 16.3328 11.7816 14.1648 13.4707 12.6917C12.6376 12.5682 11.7214 12.5 10.7143 12.5C1.78571 12.5 0 17.8571 0 19.6429Z" fill="#24B82C"/>
</svg>
